<?xml version="1.0" standalone="no"?>
<!DOCTYPE svg PUBLIC "-//W3C//DTD SVG 20010904//EN"
 "http://www.w3.org/TR/2001/REC-SVG-20010904/DTD/svg10.dtd">
<svg version="1.0" xmlns="http://www.w3.org/2000/svg"
 width="225.000000pt" height="225.000000pt" viewBox="0 0 225.000000 225.000000"
 preserveAspectRatio="xMidYMid meet">
<metadata>
Created by potrace 1.11, written by Peter Selinger 2001-2013
</metadata>
<g transform="translate(0.000000,225.000000) scale(0.100000,-0.100000)"
fill="#000000" stroke="none">
<path d="M0 1125 l0 -1125 1125 0 1125 0 0 1125 0 1125 -1125 0 -1125 0 0
-1125z m1125 1005 c-3 -5 0 -8 7 -5 7 3 60 -11 118 -30 58 -20 117 -38 132
-40 15 -2 40 -11 56 -19 26 -13 31 -25 61 -153 18 -76 46 -189 63 -252 16 -63
25 -118 21 -122 -4 -4 -98 -38 -208 -74 -110 -37 -208 -71 -218 -77 -22 -11
-117 8 -117 24 0 5 -4 6 -10 3 -5 -3 -43 8 -84 24 -41 16 -91 33 -110 37 -20
3 -36 10 -36 15 0 5 -3 8 -7 7 -9 -2 -81 18 -118 32 l-22 8 62 257 c34 140 65
258 68 261 3 3 76 27 162 54 86 27 159 51 163 54 9 10 24 7 17 -4z m-298 -785
c154 -52 287 -95 294 -95 14 0 183 55 442 144 96 33 147 46 165 42 15 -4 41
-9 57 -11 31 -4 258 -55 262 -58 1 -2 -44 -27 -100 -56 -56 -30 -145 -77 -197
-106 -52 -29 -128 -67 -167 -86 -58 -26 -73 -37 -73 -54 0 -36 -42 -88 -90
-113 -37 -19 -56 -23 -110 -19 -39 2 -82 12 -107 26 -54 27 -111 27 -164 -1
-87 -45 -203 -32 -262 30 -28 29 -60 105 -49 118 4 4 1 4 -7 -1 -16 -9 -173
64 -165 77 3 4 -1 5 -9 2 -8 -3 -41 10 -73 29 -32 19 -98 56 -147 81 -48 26
-85 51 -82 56 3 4 -3 6 -14 3 -10 -3 -22 0 -25 6 -4 6 3 13 16 16 13 2 75 16
138 29 63 14 124 27 135 29 11 3 27 5 36 6 9 0 142 -42 296 -94z m-343 -270
l89 -21 18 -69 c55 -224 91 -350 100 -354 6 -2 32 -22 58 -45 26 -23 65 -56
87 -72 21 -16 44 -34 49 -40 6 -5 38 -34 71 -62 l62 -52 1 -117 2 -117 -23 30
c-12 16 -28 35 -35 42 -8 8 -26 30 -41 50 -15 21 -29 39 -32 42 -3 3 -28 34
-55 70 -28 36 -56 72 -64 80 -23 23 -241 318 -241 325 0 3 5 3 12 -1 7 -4 8
-3 4 5 -4 6 -11 9 -15 6 -10 -5 -115 161 -165 262 l-36 72 33 -6 c17 -3 72
-16 121 -28z m1426 30 c0 -9 -50 -106 -87 -170 -60 -101 -85 -135 -96 -128 -6
3 -7 1 -3 -6 4 -6 0 -24 -10 -39 -27 -42 -249 -337 -264 -352 -3 -3 -39 -47
-79 -98 -46 -58 -77 -89 -81 -82 -5 8 -9 7 -13 -5 -4 -9 -3 -13 3 -10 20 12 9
-11 -23 -47 l-32 -37 2 115 c3 112 4 117 29 137 14 11 34 29 44 40 10 10 23
16 29 12 7 -3 10 -2 9 3 -3 9 73 81 167 157 59 47 60 49 81 134 37 148 85 316
92 323 7 6 193 55 220 57 6 1 12 -1 12 -4z m-1138 -277 c15 -29 43 -88 62
-131 24 -53 53 -96 92 -138 64 -66 186 -169 201 -169 17 0 197 164 235 215 21
27 51 83 68 124 30 75 79 165 85 159 5 -4 -54 -238 -63 -254 -8 -12 -320 -274
-327 -274 -3 0 -78 61 -167 136 l-163 135 -32 122 c-17 67 -32 126 -32 130 -2
18 16 -4 41 -55z"/>
<path d="M790 520 c0 -5 5 -10 11 -10 5 0 7 5 4 10 -3 6 -8 10 -11 10 -2 0 -4
-4 -4 -10z"/>
</g>
</svg>
